<svg width="24" height="24" viewBox="0 0 24 24" fill="none" xmlns="http://www.w3.org/2000/svg">
<path d="M24 24H23.2C19.9118 23.9998 16.7338 22.8143 14.2488 20.6609L13.4074 19.9317C12.9407 19.9771 12.4688 20 12 20C8.82365 20 5.83075 18.9785 3.5726 17.1236C1.26875 15.2312 0 12.7013 0 10C0 7.29875 1.26875 4.76885 3.5726 2.87645C5.83075 1.02155 8.82365 0 12 0C15.1764 0 18.1693 1.02155 20.4274 2.87645C22.7313 4.76885 24 7.29875 24 10C23.9989 11.4359 23.6365 12.8485 22.9461 14.1076C22.3469 15.2041 21.5489 16.1797 20.5929 16.9844C21.3074 18.8012 22.3872 20.4519 23.7656 21.8344L24 22.0686V24ZM13.9228 18.2611L15.2967 19.4518C17.1915 21.0939 19.5508 22.1051 22.0467 22.3448C20.6696 20.8055 19.6061 19.0123 18.9158 17.0656L18.6961 16.4425L19.1565 16.0891C21.2481 14.4839 22.4 12.3215 22.4 10C22.4 5.3682 17.7346 1.6 12 1.6C6.26545 1.6 1.6 5.3682 1.6 10C1.6 14.6318 6.26545 18.4 12 18.4C12.5248 18.3999 13.0491 18.368 13.57 18.3043L13.9228 18.2611Z" fill="#ECE8DD"/>
</svg>
