<svg width="24" height="32" viewBox="0 0 24 32" fill="none" xmlns="http://www.w3.org/2000/svg">
<path d="M21.6261 21.3689L16.8768 18.2819L18.6673 14.9992C19.0847 14.2326 19.3037 13.3738 19.3043 12.5009V7.30434C19.3043 5.36711 18.5348 3.50922 17.165 2.13939C15.7951 0.769562 13.9372 0 12 0C10.0628 0 8.20488 0.769562 6.83505 2.13939C5.46522 3.50922 4.69566 5.36711 4.69566 7.30434V12.5009C4.69631 13.3738 4.9153 14.2327 5.3327 14.9993L7.12324 18.2819L2.37392 21.3689C1.64401 21.8414 1.04425 22.4894 0.629533 23.2536C0.214812 24.0178 -0.00163134 24.8739 9.2575e-06 25.7434V31.3043H24V25.7434C24.0016 24.8739 23.7852 24.0178 23.3705 23.2536C22.9557 22.4894 22.356 21.8414 21.6261 21.3689ZM21.913 29.2174H2.08696V25.7434C2.08599 25.2217 2.21586 24.708 2.46471 24.2495C2.71355 23.791 3.07342 23.4021 3.51138 23.1186L9.8805 18.9787L7.16485 13.9999C6.91442 13.54 6.78302 13.0247 6.78261 12.5009V7.30434C6.78261 5.92061 7.3323 4.59354 8.31075 3.61509C9.2892 2.63664 10.6163 2.08695 12 2.08695C13.3837 2.08695 14.7108 2.63664 15.6893 3.61509C16.6677 4.59354 17.2174 5.92061 17.2174 7.30434V12.5009C17.217 13.0247 17.0856 13.54 16.8352 13.9999L14.1196 18.9787L20.4888 23.1186C20.9267 23.4022 21.2866 23.791 21.5354 24.2495C21.7842 24.7081 21.914 25.2217 21.913 25.7434V29.2174Z" fill="#ECE8DD"/>
</svg>
