<svg width="24" height="24" viewBox="0 0 24 24" fill="none" xmlns="http://www.w3.org/2000/svg">
<path d="M12.0008 0.000750037C5.37109 0.000750037 0 5.37634 0 12.0015C0 17.3066 3.43822 21.8031 8.20326 23.3895C8.80555 23.5027 9.02306 23.1314 9.02306 22.8104C9.02306 22.5254 9.01631 21.7716 9.01181 20.771C5.67185 21.4941 4.96831 19.1577 4.96831 19.1577C4.42153 17.7746 3.63248 17.4033 3.63248 17.4033C2.54641 16.6615 3.71873 16.6773 3.71873 16.6773C4.92181 16.759 5.55485 17.9111 5.55485 17.9111C6.62516 19.7472 8.36302 19.2162 9.05082 18.9072C9.15582 18.1339 9.46859 17.6021 9.80911 17.3058C7.14495 17.0051 4.34352 15.9737 4.34352 11.3752C4.34352 10.0619 4.80855 8.99231 5.57735 8.15226C5.44459 7.85149 5.03807 6.62891 5.68311 4.97581C5.68311 4.97581 6.68742 4.65554 8.98331 6.20664C9.94412 5.94037 10.9642 5.80761 11.9835 5.80086C13.0036 5.80761 14.0229 5.94112 14.9837 6.20664C17.2661 4.65554 18.2696 4.97581 18.2696 4.97581C18.9139 6.62891 18.5074 7.85074 18.3904 8.15226C19.1517 8.99231 19.6167 10.0626 19.6167 11.3752C19.6167 15.9842 16.8116 17.0006 14.1444 17.2938C14.5614 17.6531 14.9522 18.3919 14.9522 19.5132C14.9522 21.1183 14.9372 22.4114 14.9372 22.8022C14.9372 23.1142 15.1472 23.4892 15.7652 23.3685C20.5655 21.7986 24 17.2983 24 12.0008C24 5.37559 18.6289 0 11.9993 0L12.0008 0.000750037Z" fill="#ECE8DD"/>
</svg>
